<?xml version="1.0" standalone="no"?>
<!DOCTYPE svg PUBLIC "-//W3C//DTD SVG 20010904//EN"
 "http://www.w3.org/TR/2001/REC-SVG-20010904/DTD/svg10.dtd">
<svg version="1.0" xmlns="http://www.w3.org/2000/svg"
 width="700.000000pt" height="700.000000pt" viewBox="0 0 700.000000 700.000000"
 preserveAspectRatio="xMidYMid meet">
<metadata>
Created by potrace 1.14, written by Peter Selinger 2001-2017
</metadata>
<g transform="translate(0.000000,700.000000) scale(0.100000,-0.100000)"
fill="#000000" stroke="none">
<path d="M1555 6250 c-391 -78 -710 -381 -796 -758 -6 -26 -13 -56 -16 -67 -3
-11 -7 -81 -9 -157 -2 -103 2 -156 16 -220 86 -392 361 -681 749 -786 95 -26
98 -26 526 -29 237 -2 435 -5 442 -8 9 -3 12 -172 12 -730 l0 -725 -407 -1
c-224 0 -414 -2 -422 -3 -8 -2 -39 -6 -68 -10 -71 -9 -215 -57 -299 -99 -181
-92 -351 -262 -441 -442 -35 -70 -78 -187 -86 -236 -22 -119 -28 -186 -23
-279 15 -300 163 -582 397 -759 194 -146 399 -212 640 -207 284 7 508 102 702
299 147 149 241 329 286 547 3 14 7 222 9 463 l4 437 730 0 729 0 0 -402 c0
-397 5 -476 34 -596 34 -137 139 -323 250 -440 99 -104 265 -209 410 -257 131
-44 208 -55 356 -51 190 6 319 42 478 133 138 81 227 164 350 328 33 44 141
295 139 325 0 3 6 45 13 93 23 162 0 355 -60 507 -131 332 -433 579 -780 636
-25 4 -49 8 -55 9 -5 1 -198 3 -427 3 l-417 2 0 730 -1 730 399 0 c230 0 432
5 477 11 86 12 231 57 308 95 149 75 302 209 388 340 40 61 53 84 91 158 70
140 105 424 72 592 -83 429 -389 737 -822 828 -91 20 -313 15 -408 -8 -286
-71 -510 -236 -657 -486 -51 -86 -79 -156 -107 -267 -29 -116 -30 -135 -30
-570 l-1 -402 -730 0 -730 0 0 402 c0 436 -6 507 -54 650 -86 257 -271 469
-513 591 -69 34 -190 75 -273 90 -97 19 -269 17 -375 -4z m334 -284 c65 -15
139 -40 176 -58 164 -84 289 -216 356 -377 53 -129 57 -165 57 -605 l1 -407
-405 2 c-417 1 -452 4 -574 45 -25 8 -70 29 -100 46 -364 202 -486 660 -271
1017 104 172 278 294 481 336 54 12 232 12 279 1z m3571 -19 c390 -120 603
-524 484 -917 -60 -198 -217 -370 -413 -451 -129 -53 -165 -56 -605 -58 l-406
-1 1 406 c2 440 5 476 58 605 81 195 254 353 451 413 145 43 295 44 430 3z
m-1230 -2447 l0 -730 -730 0 -730 0 0 730 0 730 730 0 730 0 0 -730z m-1751
-1423 c-1 -437 -6 -483 -58 -608 -87 -207 -260 -359 -478 -421 -111 -31 -277
-31 -388 0 -269 77 -459 284 -523 572 -13 60 -4 282 12 309 3 4 7 20 10 35 8
46 64 157 109 216 84 112 183 189 310 243 120 50 167 54 604 56 l403 1 -1
-403z m2949 378 c104 -28 178 -63 252 -118 133 -98 225 -232 270 -389 27 -93
33 -251 14 -343 -52 -249 -235 -458 -473 -541 -95 -33 -138 -39 -261 -38 -330
4 -610 232 -689 562 -17 68 -19 125 -20 485 l-1 408 411 -2 c397 -1 414 -2
497 -24z"/>
</g>
</svg>
